<svg viewBox="0 0 34 34" fill="none" xmlns="http://www.w3.org/2000/svg">
    <g clip-path="url(#clip0_48_48)">
        <path fill-rule="evenodd" clip-rule="evenodd"
            d="M21.9093 26.0162C19.8827 27.6548 15.6309 28.5207 11.5624 28.5207C7.49335 28.5207 3.24032 27.6542 1.21428 26.0156V29.3156C1.21428 30.9614 5.46428 32.7956 11.5624 32.7956C17.6557 32.7956 21.9027 30.9638 21.9093 29.3192V26.0162ZM21.9099 19.7457L23.1242 19.739V19.7457C23.1242 20.4791 22.7569 21.1638 22.0417 21.7907C22.9087 22.5537 23.1242 23.3022 23.1242 23.8351C23.1242 23.8387 23.1236 23.8417 23.1236 23.8453V29.3156C23.1236 32.3578 17.1669 34 11.5624 34C5.97124 34 0.0303572 32.3651 0.00182159 29.3367C0.00182159 29.3337 0 29.3307 0 29.3276V23.8333C0 23.8333 0.00121478 23.8303 0.00121478 23.8285C0.00303621 23.2955 0.219178 22.55 1.08496 21.7889C0.224642 21.0289 0.00607109 20.2876 0.000606809 19.7589H0.00121478C0.00121478 19.7565 0 19.7547 0 19.7523V14.2579C0 14.2561 0.00121478 14.2543 0.00121478 14.2525C0.00303621 13.7196 0.219786 12.9741 1.08557 12.2141C0.224643 11.4536 0.00607109 10.7117 0.000606809 10.1836H0.00121478C0.00121478 10.1812 0 10.1787 0 10.1763V4.68259C0 4.68079 0.00121478 4.67898 0.00121478 4.67718C0.0115362 1.63915 5.96214 0 11.5624 0C14.7262 0 17.7656 0.502825 19.9009 1.37961L19.4364 2.49245C17.4432 1.67408 14.5732 1.20437 11.5624 1.20437C5.46428 1.20437 1.21489 3.03863 1.21489 4.68561C1.21489 6.33198 5.46428 8.16624 11.5624 8.16624C11.7269 8.16805 11.8878 8.16624 12.0506 8.16022L12.1016 9.36338C11.9218 9.37061 11.7421 9.37061 11.5624 9.37061C7.49335 9.37061 3.24032 8.50406 1.21429 6.86552V10.1637L1.21489 10.1775C1.22096 10.8092 1.86878 11.3608 2.41157 11.7113C4.04478 12.7525 6.97121 13.4637 10.2346 13.6112L10.1793 14.8144C6.87346 14.6644 3.9786 13.9785 2.11528 12.9271C1.65628 13.2704 1.21489 13.7346 1.21489 14.261C1.21489 15.9073 5.46428 17.7416 11.5624 17.7416C12.1604 17.7416 12.7542 17.7217 13.328 17.682L13.4124 18.8833C12.8113 18.9249 12.1884 18.946 11.5624 18.946C7.49335 18.946 3.24032 18.0794 1.21429 16.4409V19.739C1.22036 20.3846 1.86878 20.9356 2.41157 21.2867C4.27914 22.4784 7.78599 23.2203 11.5624 23.2203H11.8296V24.4246H11.5624C7.72588 24.4246 4.23907 23.7123 2.10678 22.5085C1.65021 22.8511 1.21489 23.313 1.21489 23.8351C1.21489 25.4815 5.46428 27.3163 11.5624 27.3163C17.6557 27.3163 21.9027 25.4845 21.9093 23.8393V23.8333C21.9081 23.31 21.471 22.8475 21.0132 22.5049C20.7169 22.6729 20.3994 22.8349 20.0381 22.9836L19.573 21.8708C20.0138 21.6895 20.3963 21.4938 20.7102 21.2879C21.2579 20.9308 21.9099 20.3725 21.9099 19.7457ZM27.1107 10.9387H23.7083C23.5073 10.9387 23.3185 10.8399 23.2062 10.6749C23.0926 10.5099 23.0696 10.2998 23.1436 10.1149L25.2134 4.94093H17.3758L13.7329 12.1672H17.6077C17.8014 12.1672 17.9835 12.2593 18.0983 12.4141C18.2118 12.5694 18.2452 12.7687 18.1863 12.9524L14.7281 23.7327L27.1107 10.9387ZM28.974 10.7538L13.7961 26.4347C13.6777 26.5564 13.5186 26.6196 13.3577 26.6196C13.2509 26.6196 13.1434 26.5925 13.0475 26.5353C12.8046 26.392 12.6935 26.1023 12.7791 25.835L16.7778 13.3715H12.7506C12.5399 13.3715 12.345 13.2637 12.2339 13.0861C12.1234 12.9085 12.1131 12.6868 12.2078 12.5002L16.4578 4.06957C16.5604 3.86543 16.7705 3.73656 17.0006 3.73656H26.1077C26.3087 3.73656 26.4975 3.83592 26.6098 4.00032C26.7234 4.16592 26.7464 4.37548 26.6724 4.56095L24.6026 9.73433H28.5357C28.7785 9.73433 28.9989 9.87885 29.0942 10.1005C29.1896 10.3227 29.1422 10.5798 28.974 10.7538ZM2.09768 29.5523C2.958 30.037 4.04114 30.4447 5.31674 30.7627L5.61303 29.5944C4.46007 29.3072 3.45221 28.9302 2.69753 28.5051L2.09768 29.5523ZM5.31674 21.1277L5.61303 19.96C4.46007 19.6722 3.45221 19.2952 2.69753 18.8701L2.09768 19.9173C2.958 20.402 4.04053 20.8097 5.31674 21.1277ZM2.09768 10.2823L2.69753 9.23512C3.451 9.66026 4.45946 10.0366 5.61303 10.3251L5.31674 11.4927C4.03932 11.1742 2.95678 10.7665 2.09768 10.2823Z"
            fill="white" />
    </g>
    <defs>
        <clipPath id="clip0_48_48">
            <rect width="30" height="34" fill="white" />
        </clipPath>
    </defs>
</svg>