<svg viewBox="0 0 34 34" fill="none" xmlns="http://www.w3.org/2000/svg">
    <path fill-rule="evenodd" clip-rule="evenodd"
        d="M6.37496 27.625H27.625V6.375H6.37496V27.625ZM32.5833 9.20833V7.79166H29.0416V5.66666C29.0416 5.27566 28.7243 4.95833 28.3333 4.95833H26.2083V1.41666H24.7916V4.95833H21.9583V1.41666H20.5416V4.95833H17.7083V1.41666H16.2916V4.95833H13.4583V1.41666H12.0416V4.95833H9.20829V1.41666H7.79163V4.95833H5.66663C5.27492 4.95833 4.95829 5.27566 4.95829 5.66666V7.79166H1.41663V9.20833H4.95829V12.0417H1.41663V13.4583H4.95829V16.2917H1.41663V17.7083H4.95829V20.5417H1.41663V21.9583H4.95829V24.7917H1.41663V26.2083H4.95829V28.3333C4.95829 28.725 5.27492 29.0417 5.66663 29.0417H7.79163V32.5833H9.20829V29.0417H12.0416V32.5833H13.4583V29.0417H16.2916V32.5833H17.7083V29.0417H20.5416V32.5833H21.9583V29.0417H24.7916V32.5833H26.2083V29.0417H28.3333C28.7243 29.0417 29.0416 28.725 29.0416 28.3333V26.2083H32.5833V24.7917H29.0416V21.9583H32.5833V20.5417H29.0416V17.7083H32.5833V16.2917H29.0416V13.4583H32.5833V12.0417H29.0416V9.20833H32.5833Z"
        fill="#E5E5E5" />
</svg>