<svg viewBox="0 0 34 34" fill="none" xmlns="http://www.w3.org/2000/svg">
    <path fill-rule="evenodd" clip-rule="evenodd"
        d="M17.001 31.1687C9.1888 31.1687 2.83293 24.8128 2.83293 17.0006C2.83293 9.18914 9.1888 2.83326 17.001 2.83326C24.8125 2.83326 31.1684 9.18914 31.1684 17.0006C31.1684 24.8128 24.8125 31.1687 17.001 31.1687ZM17.001 1.4166C8.40751 1.4166 1.41626 8.40714 1.41626 17.0006C1.41626 25.5941 8.40751 32.5854 17.001 32.5854C25.5945 32.5854 32.5851 25.5941 32.5851 17.0006C32.5851 8.40714 25.5945 1.4166 17.001 1.4166ZM20.6008 16.4998C20.8777 16.7768 20.8777 17.2245 20.6008 17.5014L18.5161 19.5882L17.5146 18.5866L18.3915 17.709H13.2816V16.2923H18.3915L17.5146 15.4147L18.5161 14.4131L20.6008 16.4998ZM22.6677 24.9701H24.9698V22.668H22.6677V24.9701ZM25.6781 21.2513H21.9593C21.5676 21.2513 21.251 21.568 21.251 21.9597V25.6784C21.251 26.0701 21.5676 26.3868 21.9593 26.3868H25.6781C26.0698 26.3868 26.3864 26.0701 26.3864 25.6784V21.9597C26.3864 21.568 26.0698 21.2513 25.6781 21.2513ZM12.5137 13.2748L17.681 10.5477L16.5711 10.2467L16.9415 8.8796L19.7883 9.65097C20.1658 9.75368 20.3883 10.1418 20.2863 10.5201L19.5149 13.3683L18.1478 12.9978L18.4935 11.7207L13.1753 14.5286L12.5137 13.2748ZM22.6677 11.334H24.9698V9.03189H22.6677V11.334ZM25.6781 7.61522H21.9593C21.5676 7.61522 21.251 7.93185 21.251 8.32355V12.0423C21.251 12.434 21.5676 12.7506 21.9593 12.7506H25.6781C26.0698 12.7506 26.3864 12.434 26.3864 12.0423V8.32355C26.3864 7.93185 26.0698 7.61522 25.6781 7.61522ZM5.91134 19.3707H10.6501V14.632H5.91134V19.3707ZM11.3584 13.2146H5.20301C4.8113 13.2146 4.49468 13.5319 4.49468 13.9229V20.0791C4.49468 20.4701 4.8113 20.7874 5.20301 20.7874H11.3584C11.7501 20.7874 12.0668 20.4701 12.0668 20.0791V13.9229C12.0668 13.5319 11.7501 13.2146 11.3584 13.2146ZM20.2863 23.4812C20.3883 23.8594 20.1658 24.2476 19.7883 24.3503L16.9415 25.1224L16.5711 23.7553L17.6817 23.4543L12.5137 20.7272L13.1753 19.4734L18.4935 22.2806L18.1478 21.0034L19.5149 20.633L20.2863 23.4812ZM22.6677 18.1517H24.9698V15.8496H22.6677V18.1517ZM25.6781 14.4329H21.9593C21.5676 14.4329 21.251 14.7496 21.251 15.1413V18.86C21.251 19.2517 21.5676 19.5683 21.9593 19.5683H25.6781C26.0698 19.5683 26.3864 19.2517 26.3864 18.86V15.1413C26.3864 14.7496 26.0698 14.4329 25.6781 14.4329Z"
        fill="white" />
</svg>