<svg viewBox="0 0 34 34" fill="none" xmlns="http://www.w3.org/2000/svg">
    <path fill-rule="evenodd" clip-rule="evenodd"
        d="M28.6902 18.5301L28.8489 17.35C30.1125 18.1199 30.5028 18.5648 30.6162 18.7525C30.2811 18.8538 29.6047 18.7645 28.6902 18.5301ZM16.1513 14.2454C16.1513 14.2078 16.1818 14.1774 16.2193 14.1774C16.2299 14.1774 16.2377 14.1844 16.2469 14.1894L16.1952 14.2935C16.1718 14.2864 16.1513 14.2723 16.1513 14.2454ZM25.864 28.8987C25.8597 28.9305 25.8576 28.9617 25.8576 28.9929C25.8576 29.1027 25.5891 29.5199 24.3956 29.9909C23.8636 30.2013 23.2353 30.3897 22.527 30.5526C20.703 30.9748 18.4619 31.2071 16.2179 31.2071C10.2211 31.2071 6.57959 29.67 6.57959 28.9929C6.57959 28.9617 6.57746 28.9305 6.57321 28.8987L3.85392 8.70194C4.02888 8.80394 4.21659 8.90099 4.4135 8.9959C4.46946 9.02282 4.53038 9.04832 4.58846 9.07524C4.75846 9.15386 4.93484 9.22965 5.119 9.30332C5.19834 9.33449 5.27838 9.36565 5.35984 9.39611C5.55534 9.46978 5.75721 9.54061 5.96617 9.60861C6.0278 9.62915 6.08659 9.6504 6.14892 9.66953C6.41738 9.75382 6.69575 9.83457 6.98263 9.91036C7.06267 9.93161 7.14555 9.95215 7.227 9.97199C7.448 10.0287 7.67325 10.0825 7.90346 10.1335C8.00334 10.1562 8.1025 10.1781 8.20309 10.1987C8.46163 10.2532 8.72584 10.3056 8.9943 10.3545C9.05238 10.3651 9.10834 10.3764 9.16713 10.3871C9.49155 10.4437 9.82375 10.4962 10.1609 10.5457C10.2558 10.5592 10.3522 10.5712 10.4485 10.584C10.7035 10.6194 10.962 10.652 11.2227 10.6824C11.329 10.6945 11.4359 10.7072 11.5436 10.7193C11.8581 10.7526 12.1754 10.783 12.4949 10.8107C12.5324 10.8135 12.5707 10.8177 12.6096 10.8206C12.9666 10.8496 13.3258 10.873 13.6856 10.8942C13.7883 10.8999 13.891 10.9042 13.9944 10.9091C14.2664 10.9226 14.5384 10.9332 14.8104 10.9424C14.9174 10.9459 15.0229 10.9495 15.1292 10.9523C15.4925 10.9601 15.8559 10.9665 16.2179 10.9665C16.5791 10.9665 16.9425 10.9601 17.3059 10.9523C17.4121 10.9495 17.5191 10.9459 17.6253 10.9424C17.898 10.9332 18.1693 10.9226 18.4406 10.9091C18.5448 10.9042 18.6475 10.8999 18.7509 10.8942C19.1114 10.873 19.4698 10.8496 19.8261 10.8206C19.8658 10.817 19.9048 10.8128 19.9437 10.8107C20.2632 10.783 20.5784 10.7526 20.8915 10.7193C21.0005 10.7072 21.1075 10.6945 21.2152 10.6824C21.4744 10.652 21.7323 10.6194 21.9865 10.5847C22.0836 10.5719 22.1813 10.5592 22.277 10.545C22.6134 10.4962 22.9449 10.4437 23.27 10.3871C23.3288 10.3764 23.3862 10.3651 23.445 10.3538C23.7128 10.3056 23.9755 10.2532 24.2341 10.1987C24.3354 10.1781 24.4338 10.1562 24.5337 10.1335C24.7639 10.0818 24.9892 10.0279 25.2109 9.97199C25.2916 9.95144 25.3745 9.93161 25.4545 9.91107C25.7421 9.83457 26.0205 9.75382 26.289 9.66953C26.3506 9.6504 26.4087 9.62986 26.4689 9.60932C26.6793 9.54132 26.8825 9.46978 27.0795 9.3954C27.1595 9.36565 27.2388 9.3352 27.3175 9.30403C27.503 9.22965 27.6808 9.15315 27.853 9.07382C27.9089 9.04761 27.9684 9.02282 28.0237 8.99661C28.2206 8.90169 28.409 8.80394 28.584 8.70194L27.3146 18.127C24.7384 17.3004 21.1203 15.8009 17.6955 14.1724C17.6565 13.3883 17.0126 12.7607 16.2193 12.7607C15.4005 12.7607 14.7346 13.4272 14.7346 14.2454C14.7346 15.0635 15.4005 15.7293 16.2193 15.7293C16.5409 15.7293 16.837 15.6238 17.0799 15.4488C20.1484 16.9214 24.0662 18.659 27.1241 19.5416L25.864 28.8987ZM16.2179 2.8334C23.598 2.8334 28.7979 5.1199 28.8942 6.38994L28.8758 6.53728C28.863 6.58119 28.8354 6.62582 28.812 6.67115C28.7929 6.70799 28.7788 6.7434 28.7525 6.78094C28.7214 6.82486 28.6753 6.86949 28.635 6.91411C28.5988 6.95307 28.5684 6.99203 28.5252 7.03169C28.477 7.0749 28.4154 7.11953 28.358 7.16344C28.3049 7.20453 28.2581 7.2449 28.1972 7.28669C28.1328 7.32919 28.0555 7.37311 27.9833 7.41703C27.9132 7.45882 27.8487 7.50132 27.7701 7.54311C27.6922 7.58561 27.6008 7.62669 27.5151 7.66919C27.4273 7.7124 27.3451 7.7549 27.2488 7.79811C27.1574 7.83849 27.0533 7.87886 26.9555 7.91924C26.8493 7.96174 26.7494 8.00565 26.636 8.04744C26.5312 8.08711 26.4136 8.12536 26.3024 8.16361C26.1813 8.2054 26.0651 8.2479 25.9362 8.28899C25.8165 8.32724 25.6848 8.36265 25.558 8.4002C25.4234 8.43986 25.2938 8.48024 25.1521 8.51849C25.0161 8.55532 24.8695 8.58932 24.7278 8.62474C24.5812 8.66086 24.4395 8.6984 24.2858 8.73382C24.1328 8.76853 23.9685 8.8004 23.8084 8.83369C23.654 8.86557 23.5038 8.89957 23.3423 8.93003C23.1723 8.96261 22.9903 8.99165 22.8132 9.02211C22.6503 9.04974 22.4923 9.07949 22.323 9.10569C22.1388 9.13403 21.9433 9.15953 21.7521 9.18574C21.5793 9.20911 21.4107 9.23532 21.2322 9.25657C21.0246 9.28207 20.8058 9.30332 20.5911 9.32528C20.4183 9.34369 20.2511 9.36424 20.074 9.37982C19.836 9.40178 19.5867 9.41807 19.3416 9.43507C19.1766 9.44782 19.0172 9.46199 18.8486 9.47261C18.5802 9.48819 18.299 9.49811 18.0206 9.51015C17.8676 9.51582 17.7188 9.52503 17.5623 9.52999C17.1238 9.54274 16.6755 9.54982 16.2179 9.54982C15.7603 9.54982 15.3119 9.54274 14.8728 9.52999C14.7155 9.52503 14.5653 9.51511 14.4095 9.50945C14.1333 9.49811 13.8549 9.48819 13.5871 9.47261C13.41 9.46128 13.2415 9.4464 13.0679 9.43365C12.832 9.41665 12.5912 9.40107 12.3624 9.37982C12.1846 9.36424 12.0175 9.34299 11.8439 9.32528C11.6293 9.30332 11.4104 9.28207 11.2036 9.25657C11.0265 9.23532 10.8586 9.20982 10.6865 9.18574C10.4953 9.15953 10.2983 9.13474 10.1135 9.10569C9.9378 9.07878 9.77346 9.04761 9.60417 9.01857C9.43346 8.98882 9.2585 8.96119 9.09488 8.93003C8.93054 8.89886 8.77825 8.86486 8.61959 8.83228C8.46234 8.79899 8.30084 8.76782 8.14996 8.73311C7.99696 8.6984 7.856 8.66086 7.70938 8.62474C7.56771 8.58932 7.42038 8.55532 7.28509 8.51849C7.14129 8.48024 7.01025 8.43915 6.87355 8.39878C6.74888 8.36265 6.61925 8.32653 6.50096 8.28899C6.36992 8.24719 6.25234 8.20469 6.1298 8.16149C6.02 8.12394 5.90454 8.0864 5.80184 8.04744C5.68709 8.00565 5.58721 7.96103 5.48096 7.91853C5.38321 7.87815 5.27909 7.83778 5.18842 7.79811C5.0935 7.7549 5.01063 7.7124 4.92279 7.66919C4.83709 7.62669 4.745 7.58561 4.66709 7.5424C4.58917 7.50061 4.524 7.45811 4.45317 7.41561C4.38163 7.3724 4.30442 7.32919 4.24067 7.28669C4.17904 7.24419 4.13088 7.20311 4.07704 7.16132C4.02109 7.11811 3.96017 7.07419 3.91342 7.03169C3.86879 6.99132 3.83763 6.95094 3.80079 6.91199C3.76113 6.86807 3.7165 6.82415 3.68534 6.78094C3.65842 6.74269 3.64496 6.70586 3.62513 6.66761C3.60246 6.62369 3.57484 6.57978 3.56279 6.53728L3.54296 6.38924C3.64142 5.11919 8.83988 2.8334 16.2179 2.8334ZM32.0555 18.5988C31.9046 17.7842 30.9661 16.9214 29.0543 15.8292L30.2698 6.79653V6.79369L30.3059 6.51674C30.3102 6.48628 30.3123 6.45582 30.3123 6.42536C30.3123 3.47374 22.8847 1.41674 16.2179 1.41674C9.55175 1.41674 2.12488 3.47374 2.12488 6.42536C2.12488 6.45653 2.127 6.48769 2.13125 6.51886L2.16809 6.79511V6.79653L5.16363 29.0481C5.25642 31.6519 11.9728 32.6238 16.2179 32.6238C18.566 32.6238 20.9198 32.3787 22.8458 31.9332C23.6214 31.7547 24.3177 31.5443 24.9155 31.3084C26.4498 30.7028 27.2424 29.942 27.2735 29.0481L28.5068 19.8901C29.1811 20.0332 29.7938 20.1203 30.3031 20.1203C30.9895 20.1203 31.503 19.9751 31.7807 19.6436C32.0286 19.3489 32.1263 18.9777 32.0555 18.5988Z"
        fill="#E5E5E5" />
</svg>