<svg viewBox="0 0 34 34" fill="none" xmlns="http://www.w3.org/2000/svg">
    <path fill-rule="evenodd" clip-rule="evenodd"
        d="M2.07279 1.21429L7.71496 6.85646L6.85646 7.71496L1.21429 2.07279V6.67857H0V0.607143C0 0.272 0.271393 0 0.607143 0H6.67857V1.21429H2.07279ZM34 0.607143V6.67857H32.7857V2.07279L27.1435 7.71496L26.285 6.85646L31.9272 1.21429H27.3214V0H33.3929C33.7286 0 34 0.272 34 0.607143ZM32.7857 27.3214H34V33.3929C34 33.728 33.7286 34 33.3929 34H27.3214V32.7857H31.9272L26.285 27.1435L27.1435 26.285L32.7857 31.9272V27.3214ZM32.4821 16.5222C32.4821 14.5071 30.1556 12.5162 26.2589 11.1969L26.6481 10.047C31.127 11.563 33.6964 13.923 33.6964 16.5222C33.6964 19.122 31.127 21.4825 26.6475 22.998L26.2583 21.8474C30.1556 20.5287 32.4821 18.5385 32.4821 16.5222ZM1.55186 16.5222C1.55186 18.4529 3.72968 20.3909 7.378 21.7072L6.96575 22.8492C2.75339 21.3295 0.337571 19.0236 0.337571 16.5222C0.337571 14.0214 2.75339 11.7154 6.96575 10.1951L7.378 11.3372C3.72968 12.6541 1.55186 14.5921 1.55186 16.5222ZM7.71496 27.1435L2.07279 32.7857H6.67857V34H0.607143C0.271393 34 0 33.728 0 33.3929V27.3214H1.21429V31.9272L6.85646 26.285L7.71496 27.1435ZM17 11.7094C12.6614 11.7094 10.3214 10.5886 10.3214 10.1308C10.3214 9.67239 12.6614 8.55221 17 8.55221C21.338 8.55221 23.6786 9.67239 23.6786 10.1308C23.6786 10.5886 21.338 11.7094 17 11.7094ZM17.0176 16.4117C12.8635 16.4117 10.3214 15.2769 10.3214 14.6595V11.7081C11.8168 12.5333 14.4694 12.9236 17 12.9236C19.5306 12.9236 22.1832 12.5333 23.6786 11.7081V14.6595C23.6786 15.2775 21.1498 16.4117 17.0176 16.4117ZM17.0176 21.0478C12.8635 21.0478 10.3214 19.9131 10.3214 19.2956V16.3091C11.7974 17.1767 14.4148 17.626 17.0176 17.626C19.6059 17.626 22.2081 17.1773 23.6786 16.3121V19.2956C23.6786 19.9137 21.1498 21.0478 17.0176 21.0478ZM17 25.2074C12.679 25.2074 10.3214 24.0459 10.3214 23.4491V20.9452C11.7974 21.8128 14.4148 22.2621 17.0176 22.2621C19.6059 22.2621 22.2081 21.814 23.6786 20.9482V23.4491C23.6786 24.0459 21.321 25.2074 17 25.2074ZM17 7.33793C13.1987 7.33793 9.10714 8.21161 9.10714 10.1308V23.4491C9.10714 25.4004 13.0779 26.4216 17 26.4216C20.9221 26.4216 24.8929 25.4004 24.8929 23.4491V10.1308C24.8929 8.21161 20.8013 7.33793 17 7.33793Z"
        fill="#4F4F4F" />
</svg>