<svg viewBox="0 0 34 28" fill="none" xmlns="http://www.w3.org/2000/svg">
    <path fill-rule="evenodd" clip-rule="evenodd"
        d="M10.6996 16.6244L12.2447 14.3453C12.4185 14.0888 12.4193 13.7545 12.2462 13.4981L10.7011 11.1984L9.4141 12.0418L10.1557 13.1462H7.74002V14.6727H10.1627L9.41565 15.7749L10.6996 16.6244ZM24.606 16.6228L26.1511 14.3323C26.3241 14.0759 26.3241 13.7423 26.1511 13.4859L24.606 11.1969L23.3205 12.0433L24.0652 13.147H21.6456V14.6735H24.0644L23.3205 15.7764L24.606 16.6228ZM14.2911 13.9095C14.2911 15.0566 14.1119 16.1466 13.7751 17.1189C14.7878 16.7823 15.8995 16.6137 17.012 16.6137C18.1236 16.6137 19.2361 16.7823 20.2481 17.1189C19.9121 16.1466 19.7321 15.0566 19.7321 13.9095C19.7321 12.7631 19.9121 11.6731 20.2481 10.7008C18.2233 11.3747 15.8006 11.3747 13.7751 10.7008C14.1119 11.6731 14.2911 12.7631 14.2911 13.9095ZM11.0526 19.7972C10.902 19.6484 10.8263 19.453 10.8263 19.2576C10.8263 19.0622 10.902 18.8668 11.0526 18.7179C12.1133 17.67 12.746 15.8726 12.746 13.9095C12.746 11.9472 12.1133 10.1497 11.0526 9.10176C10.902 8.95292 10.8263 8.75753 10.8263 8.56214C10.8263 8.36675 10.902 8.17136 11.0526 8.02252C11.3547 7.72409 11.8429 7.72409 12.145 8.02252C14.4186 10.2688 19.6046 10.2688 21.8789 8.02252C22.1802 7.72409 22.6692 7.72409 22.9713 8.02252C23.1219 8.17136 23.1977 8.36675 23.1977 8.56214C23.1977 8.75753 23.1219 8.95292 22.9713 9.10176C21.9106 10.1497 21.2771 11.9472 21.2771 13.9095C21.2771 15.8726 21.9106 17.67 22.9713 18.7179C23.1219 18.8668 23.1977 19.0622 23.1977 19.2576C23.1977 19.453 23.1219 19.6484 22.9713 19.7972C22.8199 19.9468 22.6229 20.0208 22.4251 20.0208C22.2274 20.0208 22.0296 19.9468 21.8789 19.7972C19.6046 17.5509 14.4186 17.5509 12.145 19.7972C11.8429 20.0956 11.3547 20.0956 11.0526 19.7972ZM31.8925 12.5669C31.5287 12.2067 31.0443 12.009 30.5298 12.009C30.0153 12.009 29.5309 12.2067 29.167 12.5669C28.8032 12.9264 28.6023 13.4042 28.6023 13.9125C28.6023 14.4216 28.8032 14.8994 29.167 15.2589C29.9187 16.0015 31.1409 16.0015 31.8925 15.2589C32.6434 14.517 32.6434 13.3088 31.8925 12.5669ZM32.9849 16.3381C32.3081 17.0067 31.4182 17.3418 30.5298 17.3418C29.6414 17.3418 28.7514 17.0067 28.0747 16.3381C27.4188 15.6909 27.0572 14.8292 27.0572 13.9125C27.0572 12.9966 27.4188 12.1349 28.0747 11.4869C28.7305 10.8389 29.6027 10.4825 30.5298 10.4825C31.4568 10.4825 32.329 10.8389 32.9849 11.4877C34.3384 12.8241 34.3384 15.0009 32.9849 16.3381ZM4.83297 12.5799C4.46988 12.2204 3.9855 12.0227 3.471 12.0227C2.95571 12.0227 2.47211 12.2204 2.10747 12.5799C1.35657 13.3225 1.35657 14.53 2.10747 15.2726C2.8352 15.9909 4.10525 15.9916 4.83297 15.2726C5.58388 14.53 5.58388 13.3225 4.83297 12.5799ZM5.92534 16.3519C5.27023 16.9999 4.39804 17.3563 3.471 17.3563C2.54241 17.3563 1.67099 16.9999 1.01511 16.3519C-0.33837 15.0147 -0.33837 12.8386 1.01511 11.5007C1.67099 10.8527 2.54241 10.4962 3.471 10.4962C4.39804 10.4962 5.27023 10.8527 5.92534 11.5007C7.27882 12.8386 7.27882 15.0147 5.92534 16.3519ZM25.8328 22.6685C20.9426 27.5007 12.9848 27.5007 8.09461 22.6685C6.83152 21.4214 6.04585 20.1384 5.37993 18.2394L3.91984 18.7393C4.66765 20.8734 5.56147 22.3251 7.00225 23.7478C9.74861 26.4619 13.3556 27.8182 16.9633 27.8182C20.571 27.8182 24.1788 26.4619 26.9251 23.7478C28.4617 22.2297 29.4127 20.7306 30.1018 18.7363L28.6402 18.2424C28.0314 20.0025 27.1924 21.326 25.8328 22.6685ZM5.37915 9.58108L3.92061 9.07962C4.66224 6.97153 5.58465 5.47327 7.00611 4.06889C12.4965 -1.3563 21.4309 -1.3563 26.9213 4.06889C28.4223 5.55188 29.4026 7.09746 30.1002 9.07962L28.6417 9.58108C28.016 7.80347 27.1747 6.4777 25.8289 5.14812C20.9403 0.319039 12.9871 0.319039 8.09847 5.14812C6.83615 6.39527 6.04817 7.67982 5.37915 9.58108Z"
        fill="#4F4F4F" />
</svg>